<?xml version="1.0" encoding="utf-8"?>
<!-- Generator: Adobe Illustrator 24.0.3, SVG Export Plug-In . SVG Version: 6.00 Build 0)  -->
<svg version="1.1" id="Layer_1" xmlns="http://www.w3.org/2000/svg" xmlns:xlink="http://www.w3.org/1999/xlink" x="0px" y="0px"
	 viewBox="0 0 383 154" style="enable-background:new 0 0 383 154;" xml:space="preserve">
<style type="text/css">
	.st0{fill:#C9FFD4;}
	.st1{enable-background:new    ;}
	.st2{fill:#231F20;}
</style>
<g id="Layer_2_1_">
</g>
<g id="Layer_1_1_">
	<g>
		<path class="st0" d="M15.64,30.59c2.63,13.15,10.6,41.94,28.04,48.91c0,0,31-29,34-52c0,0-23-3-29,30s-7,3-7,3L20.13,28.52
			C18.48,26.42,15.12,27.97,15.64,30.59z"/>
		<path class="st0" d="M49.19,98c-3,17,34-15,37-31S52.19,81,49.19,98z"/>
		<g class="st1">
			<path d="M129.48,60.31v-9.27h-9.69c-0.78,0-1.36-0.21-1.74-0.62c-0.38-0.42-0.57-1.05-0.57-1.91c0-0.99,0.17-1.67,0.51-2.03
				c0.34-0.36,0.99-0.55,1.95-0.55h16.88c0.68,0,1.18,0.21,1.5,0.64c0.33,0.43,0.49,1.07,0.49,1.93c0,0.96-0.21,1.63-0.64,1.99
				c-0.43,0.37-1.19,0.55-2.29,0.55h-0.51v10.82v0.94c0,0.7-0.08,1.19-0.23,1.46c-0.16,0.27-0.47,0.54-0.94,0.8
				c-1.48,0.89-3.65,1.64-6.48,2.27c-2.84,0.62-5.72,0.94-8.63,0.94c-6.98,0-12.62-2.23-16.91-6.68s-6.45-10.26-6.45-17.42
				c0-7.16,2.1-13.07,6.31-17.73c4.21-4.66,9.56-6.99,16.07-6.99c1.77,0,3.55,0.2,5.33,0.61c1.78,0.4,3.64,1.01,5.57,1.82
				c0.26-0.68,0.62-1.17,1.07-1.46c0.46-0.3,1.05-0.45,1.78-0.45c1.22,0,2.04,0.37,2.44,1.09c0.4,0.73,0.61,2.41,0.61,5.04v5.31
				c0,1.28-0.22,2.17-0.66,2.68c-0.44,0.51-1.21,0.76-2.3,0.76c-1.35,0-2.33-0.83-2.93-2.5c-0.21-0.49-0.38-0.87-0.51-1.13
				c-0.96-2.06-2.34-3.65-4.14-4.77c-1.8-1.12-3.85-1.68-6.17-1.68c-4.66,0-8.39,1.68-11.17,5.05c-2.79,3.37-4.18,7.92-4.18,13.64
				c0,5.91,1.54,10.6,4.61,14.09c3.07,3.49,7.16,5.23,12.27,5.23c1.48,0,3.01-0.19,4.59-0.58
				C125.88,61.79,127.61,61.17,129.48,60.31z"/>
			<path d="M161.24,61.55h12.97c1.02,0,1.76,0.21,2.25,0.64c0.48,0.43,0.72,1.11,0.72,2.05c0,1.07-0.23,1.8-0.68,2.21
				c-0.46,0.4-1.3,0.61-2.52,0.61h-25.55c-1.02,0-1.78-0.23-2.3-0.7c-0.52-0.47-0.78-1.17-0.78-2.11c0-0.91,0.27-1.59,0.8-2.03
				c0.53-0.44,1.36-0.66,2.48-0.66h6.8V36.47h-2.66c-2.53,0-4.1-0.2-4.73-0.6c-0.62-0.4-0.94-1.13-0.94-2.19
				c0-0.9,0.25-1.58,0.76-2.04c0.51-0.45,1.28-0.68,2.32-0.68h8.91c0.7,0,1.24,0.14,1.6,0.41c0.36,0.27,0.55,0.67,0.55,1.19v6.64
				c2.47-3.1,5.05-5.4,7.73-6.91c2.68-1.51,5.57-2.27,8.67-2.27c2.32,0,4.19,0.47,5.62,1.4c1.43,0.93,2.15,2.14,2.15,3.61
				c0,0.96-0.36,1.81-1.07,2.55c-0.72,0.74-1.5,1.11-2.36,1.11c-0.6,0-1.61-0.4-3.03-1.19c-1.42-0.79-2.69-1.19-3.81-1.19
				c-2.03,0-4.17,0.72-6.43,2.17c-2.25,1.45-4.75,3.74-7.48,6.87V61.55z"/>
			<path d="M233.58,49.05c0,5.57-1.9,10.13-5.7,13.67c-3.8,3.54-8.74,5.31-14.8,5.31c-6.04,0-10.96-1.77-14.77-5.31
				c-3.8-3.54-5.7-8.1-5.7-13.67c0-5.57,1.9-10.12,5.7-13.65c3.8-3.53,8.72-5.29,14.77-5.29c6.04,0,10.97,1.77,14.79,5.31
				C231.67,38.96,233.58,43.5,233.58,49.05z M213.08,62.53c4.01,0,7.3-1.27,9.86-3.8c2.56-2.54,3.85-5.77,3.85-9.69
				s-1.29-7.17-3.87-9.73c-2.58-2.56-5.86-3.84-9.84-3.84s-7.26,1.28-9.82,3.84c-2.57,2.56-3.85,5.81-3.85,9.73
				c0,3.95,1.28,7.19,3.83,9.71C205.78,61.27,209.06,62.53,213.08,62.53z"/>
			<path d="M260.85,47.22l-5.04,18.55c-0.26,0.99-0.65,1.68-1.17,2.07c-0.52,0.39-1.3,0.59-2.34,0.59c-0.94,0-1.67-0.25-2.19-0.74
				c-0.52-0.5-0.99-1.39-1.41-2.7l-8.95-28.51h-0.35c-1.09,0-1.88-0.21-2.36-0.64s-0.72-1.14-0.72-2.15c0-0.88,0.25-1.55,0.76-2.02
				c0.51-0.46,1.26-0.7,2.25-0.7h10.43c1.41,0,2.36,0.2,2.85,0.6c0.49,0.4,0.74,1.11,0.74,2.11c0,0.62-0.14,1.16-0.43,1.61
				c-0.29,0.45-0.65,0.73-1.09,0.83c-0.44,0.13-0.96,0.22-1.54,0.27s-1.3,0.08-2.13,0.08h-2.27l6.72,23.48l5.04-17.03
				c0.29-0.99,0.69-1.68,1.21-2.07c0.52-0.39,1.29-0.59,2.3-0.59c0.94,0,1.67,0.25,2.21,0.76c0.53,0.51,1.01,1.4,1.43,2.68
				l4.88,16.25l6.45-23.48h-0.94h-1.68c-1.8,0-3.01-0.2-3.63-0.6c-0.62-0.4-0.94-1.13-0.94-2.19c0-1.03,0.23-1.75,0.7-2.13
				s1.38-0.58,2.73-0.58h10.47c0.81,0,1.41,0.23,1.82,0.7c0.4,0.47,0.61,1.14,0.61,2.02c0,0.98-0.23,1.68-0.7,2.09
				s-1.35,0.65-2.66,0.7l-8.79,29.29c-0.34,0.99-0.76,1.68-1.27,2.07s-1.27,0.59-2.29,0.59c-0.94,0-1.68-0.25-2.23-0.76
				s-1-1.4-1.37-2.68L260.85,47.22z"/>
			<path d="M319.75,33.15c1.28,0,2.21,0.22,2.79,0.66c0.59,0.44,0.88,1.15,0.88,2.11c0,0.91-0.27,1.6-0.82,2.05
				c-0.55,0.46-1.37,0.68-2.46,0.68h-15.82v13.05c0,4.27,0.55,7.08,1.66,8.44c1.11,1.35,3,2.03,5.68,2.03
				c2.37,0,5.21-0.69,8.52-2.07c3.31-1.38,5.35-2.07,6.13-2.07c0.73,0,1.35,0.26,1.86,0.78c0.51,0.52,0.76,1.16,0.76,1.91
				c0,0.86-0.32,1.61-0.96,2.25c-0.64,0.64-1.73,1.26-3.26,1.86c-2.55,1.02-4.85,1.76-6.89,2.23c-2.04,0.47-3.96,0.7-5.76,0.7
				c-3.05,0-5.61-0.49-7.68-1.46s-3.61-2.43-4.63-4.36c-0.52-0.91-0.89-1.99-1.11-3.24c-0.22-1.25-0.33-3.18-0.33-5.78v-1.21V38.66
				h-6.64c-1.09,0-1.89-0.21-2.38-0.64c-0.5-0.43-0.74-1.13-0.74-2.09c0-1.07,0.34-1.8,1.02-2.19c0.68-0.39,2.12-0.59,4.34-0.59
				h4.41v-8.01v-2.07c0-1.12,0.24-1.95,0.72-2.48c0.48-0.53,1.23-0.8,2.25-0.8c1.15,0,1.94,0.33,2.38,0.98
				c0.44,0.65,0.66,2.14,0.66,4.45v7.93H319.75z"/>
			<path d="M342.41,61.55v-40h-0.74c-1.77,0-2.99-0.21-3.65-0.62c-0.66-0.42-1-1.15-1-2.19c0-0.94,0.27-1.64,0.8-2.11
				c0.53-0.47,1.31-0.7,2.32-0.7h5.94c0.7,0,1.25,0.14,1.64,0.43c0.39,0.29,0.59,0.68,0.59,1.17v17.7c1.9-1.77,3.78-3.08,5.64-3.93
				c1.86-0.85,3.79-1.27,5.8-1.27c3.93,0,7.02,1.22,9.28,3.67c2.25,2.45,3.38,5.83,3.38,10.16v17.7h1.85c1.31,0,2.26,0.21,2.83,0.64
				s0.87,1.11,0.87,2.05c0,0.94-0.26,1.64-0.78,2.11s-1.31,0.7-2.35,0.7h-10.42c-1.23,0-2.05-0.2-2.49-0.61
				c-0.43-0.4-0.65-1.14-0.65-2.21c0-1.04,0.27-1.75,0.81-2.13c0.54-0.38,1.55-0.57,3.05-0.57h1.38V45.3c0-3.05-0.69-5.37-2.08-6.97
				s-3.39-2.4-6.03-2.4c-2.69,0-5.04,0.9-7.07,2.7s-3.03,4.02-3.03,6.68v16.25h1.37c1.56,0,2.62,0.2,3.16,0.59s0.82,1.09,0.82,2.11
				c0,1.07-0.21,1.8-0.64,2.21c-0.43,0.4-1.26,0.61-2.48,0.61h-10.39c-1.02,0-1.78-0.23-2.29-0.7s-0.76-1.17-0.76-2.11
				c0-1.04,0.31-1.75,0.92-2.13c0.61-0.38,1.8-0.57,3.57-0.57H342.41z"/>
		</g>
		<g>
			<g class="st1">
				<path d="M132.09,100.46c0.42-0.66,0.94-0.75,1.55-0.28c0.71,0.61,0.82,1.44,0.35,2.47c-0.47,0.94-1.08,1.93-1.84,2.97
					c-0.75,1.04-1.64,2.07-2.65,3.11c-1.01,1.04-2.14,1.9-3.39,2.58c-1.25,0.68-2.48,1.03-3.71,1.03c-1.32,0-2.4-0.45-3.25-1.34
					c-0.99-1.13-1.67-2.92-2.05-5.37c-0.99,1.65-2.17,3.06-3.53,4.24c-0.85,0.71-1.77,1.28-2.76,1.73
					c-0.99,0.45-2.05,0.71-3.18,0.78c-1.13,0.07-2.19-0.2-3.18-0.81c-1.04-0.61-1.73-1.54-2.08-2.79s-0.43-2.5-0.25-3.74
					s0.54-2.39,1.06-3.43c0.75-1.55,1.84-2.91,3.25-4.06c1.41-1.15,2.97-2.01,4.66-2.58c1.93-0.61,3.75-0.66,5.44-0.14
					c0.09-2.64,0.14-4.29,0.14-4.95c0-0.71,0.29-1.21,0.88-1.52c0.59-0.31,1.19-0.31,1.8,0c0.61,0.31,0.92,0.82,0.92,1.55
					c0,0.73-0.04,2.27-0.11,4.63c-0.07,2.36-0.08,4.17-0.04,5.44c0.19,6.03,1.06,9.04,2.61,9.04c1.46,0,3.1-0.93,4.91-2.79
					C129.48,104.36,130.96,102.44,132.09,100.46z M111.31,107.03c2.45-2.26,4.05-5.11,4.8-8.55c-0.47-0.42-1.13-0.58-1.98-0.46
					c-0.85,0.12-1.61,0.31-2.3,0.56c-0.68,0.26-1.31,0.55-1.87,0.88c-1.37,0.85-2.46,1.97-3.29,3.36c-0.82,1.39-1.12,2.84-0.88,4.35
					c0.09,0.71,0.36,1.18,0.81,1.41c0.45,0.24,0.98,0.26,1.59,0.07c0.61-0.19,1.19-0.42,1.73-0.71
					C110.48,107.67,110.94,107.36,111.31,107.03z"/>
				<path d="M153,100.6c0.56-0.94,1.27-1.13,2.12-0.56c0.85,0.56,1.04,1.32,0.57,2.26c-0.05,0.1-0.07,0.17-0.07,0.21
					c-1.32,2.17-2.69,3.97-4.1,5.4c-1.41,1.44-3.05,2.59-4.91,3.46c-1.86,0.87-3.9,1.31-6.11,1.31c-1.37,0-2.64-0.21-3.82-0.64
					c-1.18-0.47-2.16-1.17-2.93-2.08s-1.33-1.92-1.66-3c-0.33-1.08-0.52-2.26-0.56-3.53c-0.05-2.12,0.47-4.24,1.55-6.36
					c1.08-2.12,2.59-3.44,4.52-3.96c1.7-0.52,3.31-0.12,4.84,1.2c1.53,1.32,2.34,2.88,2.44,4.66c0.05,0.75-0.22,1.28-0.81,1.59
					c-0.59,0.31-1.2,0.31-1.84,0c-0.64-0.31-0.98-0.84-1.02-1.59c0-0.42-0.22-0.92-0.67-1.48c-0.45-0.56-0.93-0.87-1.45-0.92
					c-1.13-0.14-2.19,0.89-3.18,3.11c-0.38,0.89-0.62,1.88-0.74,2.97c-0.12,1.08,0,2.17,0.35,3.25c0.35,1.08,0.95,1.88,1.8,2.4
					c0.89,0.52,2,0.78,3.32,0.78C145.53,109.03,149.65,106.21,153,100.6z"/>
				<path d="M173.77,100.6c0.57-0.94,1.27-1.13,2.12-0.56c0.85,0.56,1.04,1.32,0.56,2.26c-0.05,0.1-0.07,0.17-0.07,0.21
					c-1.32,2.17-2.68,3.97-4.1,5.4c-1.41,1.44-3.05,2.59-4.91,3.46c-1.86,0.87-3.9,1.31-6.11,1.31c-1.37,0-2.64-0.21-3.82-0.64
					c-1.18-0.47-2.15-1.17-2.93-2.08c-0.78-0.92-1.33-1.92-1.66-3c-0.33-1.08-0.52-2.26-0.56-3.53c-0.05-2.12,0.47-4.24,1.55-6.36
					c1.08-2.12,2.59-3.44,4.52-3.96c1.7-0.52,3.31-0.12,4.84,1.2c1.53,1.32,2.34,2.88,2.44,4.66c0.05,0.75-0.22,1.28-0.81,1.59
					c-0.59,0.31-1.2,0.31-1.84,0c-0.64-0.31-0.98-0.84-1.02-1.59c0-0.42-0.22-0.92-0.67-1.48c-0.45-0.56-0.93-0.87-1.45-0.92
					c-1.13-0.14-2.19,0.89-3.18,3.11c-0.38,0.89-0.62,1.88-0.74,2.97c-0.12,1.08,0,2.17,0.35,3.25c0.35,1.08,0.95,1.88,1.8,2.4
					c0.89,0.52,2,0.78,3.32,0.78C166.3,109.03,170.42,106.21,173.77,100.6z"/>
				<path d="M196.73,100.74c1.32-0.71,2.14-0.8,2.47-0.28c0.42,0.8,0.21,1.53-0.64,2.19c-2.73,2.12-6.19,3.37-10.39,3.74
					c-0.1,0.47-0.21,0.9-0.35,1.27c-0.99,2.73-2.8,4.33-5.44,4.8c-1.7,0.33-3.23,0.13-4.59-0.6c-1.37-0.73-2.47-1.83-3.32-3.29
					c-1.79-3.25-1.95-6.69-0.5-10.32c0.66-1.65,1.54-3.04,2.65-4.17c1.11-1.13,2.44-1.72,3.99-1.77c0.19-0.04,0.38-0.04,0.57,0
					c0.38,0,0.75,0.05,1.13,0.14c2.17,0.38,3.78,1.58,4.84,3.6s1.57,4.31,1.52,6.85C191.27,102.94,193.95,102.2,196.73,100.74z
					 M183.17,108.3c0.56-0.42,0.99-1.08,1.27-1.98c-2.4-0.42-4.33-1.53-5.79-3.32c-0.66-0.8-1.18-1.72-1.55-2.76
					c-0.1,0.38-0.17,0.73-0.21,1.06c-0.14,0.85-0.19,1.68-0.14,2.51c0.05,0.82,0.26,1.65,0.64,2.47c0.38,0.82,0.87,1.5,1.48,2.01
					c0.56,0.47,1.27,0.71,2.12,0.71S182.55,108.77,183.17,108.3z M183.87,97.56c-0.24-0.38-0.62-0.74-1.17-1.09
					c-0.54-0.35-1.05-0.55-1.52-0.6c-0.19,0.05-0.38,0.07-0.57,0.07h-0.14c-0.28,0.38-0.38,0.9-0.28,1.55
					c0.09,0.66,0.24,1.25,0.42,1.77c0.66,1.65,1.98,2.73,3.96,3.25c0.05,0,0.11,0,0.18,0s0.13,0.02,0.18,0.07
					C184.93,100.32,184.58,98.65,183.87,97.56z"/>
				<path d="M216.16,116.71c0.38,0.99,0.07,1.67-0.92,2.05s-1.79,0.17-2.4-0.64c-0.09-0.14-0.17-0.28-0.21-0.42
					c-0.9-2.17-1.55-5.75-1.98-10.74c-0.09-0.75-0.17-1.58-0.21-2.47c-3.11,7.06-6.52,9.42-10.25,7.06
					c-0.85-0.56-1.53-1.27-2.05-2.12c-0.52-0.85-0.85-1.88-0.99-3.11s-0.22-2.27-0.25-3.14c-0.02-0.87,0-2.02,0.07-3.46
					s0.11-2.39,0.11-2.86c0-0.75,0.31-1.28,0.92-1.59s1.21-0.31,1.8,0c0.59,0.31,0.88,0.84,0.88,1.59c0,0.52-0.02,1.39-0.07,2.61
					c-0.05,1.23-0.06,2.3-0.04,3.21c0.02,0.92,0.08,1.78,0.18,2.58c0.28,1.6,0.71,2.64,1.27,3.11c0.28,0.24,0.66,0.35,1.13,0.35
					c0.14,0,0.34-0.09,0.6-0.28c0.26-0.19,0.51-0.41,0.74-0.67c0.23-0.26,0.45-0.51,0.64-0.74c0.19-0.24,0.38-0.54,0.57-0.92
					c0.19-0.38,0.35-0.68,0.49-0.92c0.14-0.23,0.31-0.56,0.49-0.99c0.19-0.42,0.32-0.74,0.39-0.96c0.07-0.21,0.19-0.54,0.35-0.99
					c0.16-0.45,0.27-0.74,0.32-0.88c0.28-0.61,0.67-1.65,1.17-3.11c0.5-1.46,0.91-2.59,1.24-3.39c0.05-0.19,0.14-0.38,0.28-0.57
					c0.42-0.89,1.11-1.11,2.05-0.63c0.85,0.24,1.27,0.8,1.27,1.7c0,3.86,0.17,7.58,0.5,11.16
					C214.63,111.2,215.26,114.59,216.16,116.71z"/>
				<path d="M248.94,100.6c0.47-0.71,1.04-0.78,1.7-0.21c0.8,0.61,0.89,1.41,0.28,2.4c-1.84,3.11-3.58,5.45-5.23,7.03
					c-1.65,1.58-3.74,2.41-6.29,2.51c-1.65,0.1-3.01-0.4-4.1-1.48c-1.08-1.08-1.84-2.52-2.26-4.31c-0.09-0.52-0.24-1.27-0.42-2.26
					s-0.33-1.7-0.42-2.12c-0.19-0.85-0.38-1.48-0.56-1.91c-0.24-0.47-0.47-0.75-0.71-0.85c-0.71-0.33-1.44,0-2.19,0.99
					c-0.85,1.04-1.6,2.71-2.26,5.02c-1.23,4.14-1.77,8.48-1.62,13c0.05,0.56-0.12,1.01-0.49,1.34c-0.42,0.61-1.03,0.88-1.8,0.81
					c-0.78-0.07-1.24-0.51-1.38-1.31c-1.79-9.89-1.81-19.81-0.07-29.75c0.14-0.71,0.53-1.13,1.17-1.27
					c0.64-0.14,1.22,0.01,1.77,0.46c0.54,0.45,0.74,1.05,0.6,1.8c-0.71,4.05-1.11,8.17-1.2,12.37c1.6-4.62,3.79-7.02,6.57-7.21
					c1.6-0.09,2.87,0.41,3.81,1.52c0.94,1.11,1.6,2.53,1.98,4.28c0.05,0.19,0.12,0.59,0.21,1.2c0.09,0.61,0.18,1.15,0.25,1.62
					c0.07,0.47,0.2,1.03,0.39,1.66c0.19,0.64,0.4,1.17,0.64,1.59c0.23,0.42,0.56,0.78,0.99,1.06c0.42,0.28,0.89,0.42,1.41,0.42
					c0.56,0,1.12-0.08,1.66-0.25c0.54-0.16,1.02-0.38,1.45-0.63c0.42-0.26,0.87-0.6,1.34-1.03c0.47-0.42,0.87-0.81,1.2-1.17
					c0.33-0.35,0.68-0.81,1.06-1.38c0.38-0.57,0.68-1.03,0.92-1.38c0.24-0.35,0.53-0.81,0.88-1.38
					C248.55,101.24,248.8,100.84,248.94,100.6z"/>
				<path d="M281.8,78.06c0.75,0,1.28,0.29,1.59,0.88c0.31,0.59,0.31,1.19,0,1.8s-0.84,0.92-1.59,0.92h-28.47
					c0,0.05-0.01,0.15-0.04,0.32c-0.02,0.17-0.04,0.29-0.04,0.39c-0.75,11.07-1.11,20.28-1.06,27.62c0.05,5.28,0.28,9.45,0.71,12.51
					c0.28,1.79,0.61,3.25,0.99,4.38c0.14,0.47,0.35,0.92,0.64,1.34l0.07,0.28c0.05,0.05,0.14,0.12,0.28,0.21
					c0,0.05,0.02,0.07,0.07,0.07c0.33,0.23,0.54,0.55,0.64,0.95c0.09,0.4,0.07,0.77-0.07,1.1c-0.14,0.33-0.33,0.62-0.56,0.88
					c-0.24,0.26-0.53,0.4-0.88,0.42c-0.35,0.02-0.72-0.08-1.1-0.32c-0.8-0.56-1.47-1.4-2.01-2.51c-0.54-1.11-0.9-2.06-1.06-2.86
					c-0.17-0.8-0.34-1.86-0.53-3.18c-0.56-4.19-0.85-8.96-0.85-14.31s0.14-10.14,0.42-14.38c0.09-2.64,0.35-6.95,0.78-12.93h-15.26
					c-0.75,0-1.28-0.31-1.59-0.92c-0.3-0.61-0.3-1.21,0-1.8c0.31-0.59,0.84-0.88,1.59-0.88h5.87H250c0.09-1.65,0.17-3.08,0.21-4.31
					c0.05-0.71,0.39-1.21,1.03-1.52c0.63-0.31,1.25-0.31,1.84,0c0.59,0.31,0.86,0.81,0.81,1.52c-0.05,1.13-0.14,2.57-0.28,4.31
					H281.8z"/>
				<path d="M272.4,100.18c0.38-0.61,0.82-0.89,1.34-0.85s0.86,0.33,1.03,0.85c0.16,0.52,0.11,1.13-0.18,1.84
					c-1.08,2.12-2.86,4.37-5.33,6.75c-2.47,2.38-4.84,3.57-7.1,3.57c-1.32,0-2.43-0.45-3.32-1.34c-1.32-1.37-2.07-3.86-2.26-7.49
					c-0.09-0.23-0.11-1.59-0.04-4.06c0.07-2.47,0.11-3.83,0.11-4.06c0-0.75,0.31-1.28,0.92-1.59s1.21-0.31,1.8,0
					c0.59,0.31,0.88,0.84,0.88,1.59c0,0.56-0.02,1.59-0.07,3.07c-0.05,1.48-0.05,2.62,0,3.43c0,2.87,0.28,4.85,0.85,5.94
					c0.33,0.61,0.68,0.92,1.06,0.92c1.08,0,2.17-0.31,3.25-0.92c1.08-0.61,2.13-1.5,3.14-2.65c1.01-1.15,1.74-2.02,2.19-2.61
					C271.11,101.96,271.69,101.17,272.4,100.18z M260,90.78c-0.31,0.61-0.82,0.92-1.55,0.92c-0.73,0-1.25-0.31-1.55-0.92
					c-0.31-0.61-0.31-1.22,0-1.84c0.31-0.61,0.82-0.92,1.55-0.92c0.73,0,1.25,0.31,1.55,0.92C260.3,89.56,260.3,90.17,260,90.78z"/>
				<path d="M300.8,100.6c0.47-0.71,1.04-0.78,1.7-0.21c0.8,0.61,0.89,1.41,0.28,2.4c-1.84,3.11-3.58,5.45-5.23,7.03
					c-1.65,1.58-3.75,2.41-6.29,2.51c-1.65,0.1-3.02-0.4-4.1-1.48c-1.08-1.08-1.84-2.52-2.26-4.31c-0.09-0.52-0.24-1.27-0.42-2.26
					c-0.19-0.99-0.33-1.7-0.42-2.12c-0.19-0.85-0.38-1.48-0.56-1.91c-0.24-0.47-0.47-0.75-0.71-0.85c-0.71-0.33-1.44,0-2.19,0.99
					c-0.85,1.04-1.6,2.71-2.26,5.02c-1.23,4.14-1.77,8.48-1.62,13c0.05,0.56-0.12,1.01-0.5,1.34c-0.42,0.61-1.02,0.88-1.8,0.81
					s-1.24-0.51-1.38-1.31c-1.79-9.89-1.81-19.81-0.07-29.75c0.14-0.71,0.53-1.13,1.17-1.27c0.64-0.14,1.22,0.01,1.77,0.46
					c0.54,0.45,0.74,1.05,0.6,1.8c-0.71,4.05-1.11,8.17-1.2,12.37c1.6-4.62,3.79-7.02,6.57-7.21c1.6-0.09,2.87,0.41,3.82,1.52
					c0.94,1.11,1.6,2.53,1.98,4.28c0.05,0.19,0.12,0.59,0.21,1.2c0.09,0.61,0.18,1.15,0.25,1.62c0.07,0.47,0.2,1.03,0.39,1.66
					c0.19,0.64,0.4,1.17,0.64,1.59s0.57,0.78,0.99,1.06c0.42,0.28,0.89,0.42,1.41,0.42c0.57,0,1.12-0.08,1.66-0.25
					c0.54-0.16,1.02-0.38,1.45-0.63c0.42-0.26,0.87-0.6,1.34-1.03c0.47-0.42,0.87-0.81,1.2-1.17c0.33-0.35,0.68-0.81,1.06-1.38
					c0.38-0.57,0.68-1.03,0.92-1.38c0.24-0.35,0.53-0.81,0.88-1.38C300.41,101.24,300.66,100.84,300.8,100.6z"/>
				<path d="M320.02,113.11c0.71,0.14,1.13,0.53,1.27,1.17c0.14,0.63-0.01,1.22-0.46,1.77c-0.45,0.54-1.05,0.74-1.8,0.6
					c-1.65-0.33-3.32-0.47-5.02-0.42c0.05,4.9-0.26,8.88-0.92,11.94c-0.71,3.25-1.9,6.19-3.57,8.83c-1.67,2.64-3.85,4.57-6.54,5.79
					c-1.37,0.66-2.84,1.06-4.42,1.2c-1.58,0.14-3.08,0.02-4.52-0.35c-1.44-0.38-2.71-1.11-3.82-2.19c-1.11-1.08-1.8-2.45-2.08-4.1
					c-0.56-3.02-0.07-6.08,1.48-9.19c1.55-3.11,3.63-5.86,6.22-8.27c4.14-3.77,8.97-6.08,14.48-6.92c0-0.1-0.01-0.61-0.04-1.55
					c-0.02-0.94-0.04-1.65-0.04-2.12c0-0.04-0.01-0.11-0.04-0.18c-0.02-0.07-0.04-0.13-0.04-0.18c-0.24,0.33-0.47,0.63-0.71,0.92
					c-1.23,1.37-2.64,2.15-4.24,2.37c-1.6,0.21-3.08-0.39-4.45-1.8c-1.41-1.88-1.98-3.98-1.7-6.29c0.28-2.31,1.2-4.31,2.75-6.01
					c2.17-2.4,4.71-3.01,7.63-1.84l-0.14-0.92c-0.05-0.75,0.21-1.28,0.78-1.59s1.17-0.31,1.8,0s1,0.84,1.1,1.59
					c0.47,4.9,0.78,10.65,0.92,17.24C315.97,112.57,317.99,112.73,320.02,113.11z M310.34,121.23c0.09-1.37,0.12-2.92,0.07-4.66
					c-5.51,0.99-10.15,3.6-13.92,7.84c-2.03,2.31-3.44,4.69-4.24,7.13c-1.08,3.16-0.96,5.54,0.35,7.14c0.66,0.85,1.69,1.4,3.07,1.66
					c1.39,0.26,2.51,0.25,3.36-0.04c1.84-0.38,3.46-1.18,4.88-2.4C307.77,134.56,309.91,129.01,310.34,121.23z M309.7,100.81v-0.14
					c-0.94-0.89-1.92-1.32-2.93-1.27c-1.01,0.05-1.92,0.64-2.72,1.77c-0.47,0.66-0.85,1.44-1.13,2.33
					c-0.28,0.89-0.35,1.83-0.21,2.79c0.14,0.97,0.57,1.69,1.27,2.15c0.66,0.42,1.34,0.33,2.05-0.28c0.71-0.61,1.32-1.34,1.84-2.19
					C309.04,103.99,309.65,102.27,309.7,100.81z"/>
			</g>
		</g>
		<g>
			<g>
				<path class="st2" d="M14.33,124.25c27.93-1.82,55.95-2.34,83.93-1.56c7.95,0.22,15.89,0.55,23.83,0.99c1.93,0.1,1.92-2.9,0-3
					c-27.95-1.52-55.97-1.75-83.94-0.67c-7.94,0.31-15.88,0.72-23.82,1.24C12.42,121.37,12.4,124.37,14.33,124.25L14.33,124.25z"/>
			</g>
		</g>
		<g>
			<g>
				<path class="st2" d="M48.73,119.69c2.35-16.67,2.92-33.56,1.6-50.35c-0.38-4.76-0.91-9.51-1.57-14.24
					c-0.27-1.9-3.16-1.09-2.89,0.8c2.27,16.24,2.76,32.73,1.49,49.07c-0.36,4.66-0.86,9.3-1.52,13.93c-0.11,0.81,0.2,1.6,1.05,1.85
					C47.58,120.94,48.62,120.5,48.73,119.69L48.73,119.69z"/>
			</g>
		</g>
		<g>
			<g>
				<path class="st2" d="M48.97,103.77c5.06-15.72,17.06-28.76,31.98-35.69c4.23-1.96,8.71-3.38,13.29-4.25
					c1.89-0.36,1.09-3.26-0.8-2.89c-17.01,3.26-32.2,14.14-41.28,28.82c-2.56,4.14-4.6,8.59-6.09,13.22
					C45.48,104.82,48.37,105.6,48.97,103.77L48.97,103.77z"/>
			</g>
		</g>
		<g>
			<g>
				<path class="st2" d="M50.02,104.88c15.19-0.85,26.15-12.82,33.23-25.21c2.23-3.9,4.21-7.92,6.19-11.95
					c0.85-1.73-1.74-3.25-2.59-1.51c-6.17,12.56-12.97,26.21-26.1,32.75c-3.35,1.67-6.99,2.71-10.73,2.92
					C48.1,101.99,48.09,104.99,50.02,104.88L50.02,104.88z"/>
			</g>
		</g>
		<g>
			<g>
				<path class="st2" d="M48.55,80.09c-16.33-7.22-28.17-22.78-31.61-40.21c-0.98-4.96-1.21-10.04-0.72-15.07
					c0.19-1.92-2.82-1.91-3,0c-1.79,18.52,6.44,37.5,20.55,49.49c4.01,3.41,8.45,6.26,13.27,8.39
					C48.79,83.45,50.32,80.87,48.55,80.09L48.55,80.09z"/>
			</g>
		</g>
		<g>
			<g>
				<path class="st2" d="M17.3,28.46C28.72,39.01,37.45,52.38,42.47,67.1c1.42,4.17,2.55,8.43,3.38,12.76
					c0.36,1.89,3.26,1.09,2.89-0.8c-3-15.65-9.97-30.43-20.01-42.8c-2.86-3.53-5.98-6.84-9.31-9.92C18,25.03,15.87,27.15,17.3,28.46
					L17.3,28.46z"/>
			</g>
		</g>
		<g>
			<g>
				<path class="st2" d="M47.79,78.22c0.84-15.41,2.11-33.07,15.06-43.55c3.02-2.45,6.56-4.16,10.36-4.94
					c1.89-0.39,1.09-3.28-0.8-2.89c-7.38,1.52-13.49,6.33-17.85,12.33c-5.01,6.89-7.34,15.25-8.48,23.6
					c-0.7,5.13-1.01,10.29-1.29,15.46C44.69,80.15,47.69,80.14,47.79,78.22L47.79,78.22z"/>
			</g>
		</g>
		<g>
			<g>
				<path class="st2" d="M49.29,80.03c12.19-10.32,21.46-23.93,26.73-39c1.5-4.27,2.65-8.65,3.47-13.1c0.35-1.89-2.54-2.7-2.89-0.8
					c-2.82,15.33-9.79,29.81-20.05,41.55c-2.89,3.31-6.03,6.38-9.38,9.22C45.69,79.16,47.82,81.27,49.29,80.03L49.29,80.03z"/>
			</g>
		</g>
	</g>
</g>
</svg>
